<svg xmlns="http://www.w3.org/2000/svg" viewBox="0 0 600 600" role="img">
<title>TRAMA logo navy</title>
<rect width="600" height="600" fill="none"/>
<g><path d="M 205 95 C 280 135 350 135 430 95" fill="none" stroke="#172A4D" stroke-width="28" stroke-linecap="round" stroke-linejoin="round"/><path d="M 170 145 C 245 175 330 175 410 135" fill="none" stroke="#172A4D" stroke-width="28" stroke-linecap="round" stroke-linejoin="round"/><path d="M 145 205 C 235 235 330 225 435 165" fill="none" stroke="#172A4D" stroke-width="28" stroke-linecap="round" stroke-linejoin="round"/><path d="M 145 265 C 245 285 345 275 445 225" fill="none" stroke="#172A4D" stroke-width="28" stroke-linecap="round" stroke-linejoin="round"/><path d="M 205 340 C 245 275 285 205 360 120" fill="none" stroke="#172A4D" stroke-width="28" stroke-linecap="round" stroke-linejoin="round"/><path d="M 260 390 C 300 305 350 215 430 145" fill="none" stroke="#172A4D" stroke-width="28" stroke-linecap="round" stroke-linejoin="round"/><path d="M 350 390 C 320 305 270 220 205 145" fill="none" stroke="#172A4D" stroke-width="28" stroke-linecap="round" stroke-linejoin="round"/><path d="M 410 340 C 370 275 330 205 255 120" fill="none" stroke="#172A4D" stroke-width="28" stroke-linecap="round" stroke-linejoin="round"/></g>
</svg>
